<?xml version="1.0" standalone="no"?>
<!DOCTYPE svg PUBLIC "-//W3C//DTD SVG 20010904//EN"
 "http://www.w3.org/TR/2001/REC-SVG-20010904/DTD/svg10.dtd">
<svg version="1.0" xmlns="http://www.w3.org/2000/svg"
 width="500.000000pt" height="500.000000pt" viewBox="0 0 500.000000 500.000000"
 preserveAspectRatio="xMidYMid meet">

<g transform="translate(0.000000,500.000000) scale(0.100000,-0.100000)"
fill="#ffffff" stroke="none">
<path d="M217 4975 c-128 -49 -210 -164 -211 -300 -2 -141 -76 -57 1037 -1172
551 -551 999 -1004 997 -1007 -3 -3 -449 -450 -992 -993 -1108 -1110 -1043
-1035 -1042 -1183 0 -101 28 -163 104 -233 41 -38 73 -58 115 -71 77 -25 172
-18 239 16 37 19 288 264 1043 1019 l993 993 1003 -1001 c969 -967 1004 -1002
1062 -1023 120 -44 250 -13 342 82 62 63 87 127 87 218 0 148 67 73 -1047
1187 l-991 993 989 989 c1105 1105 1050 1042 1050 1180 -1 92 -31 167 -92 228
-66 66 -123 88 -228 88 -74 0 -99 -4 -140 -24 -40 -19 -248 -222 -1038 -1010
-543 -542 -990 -988 -993 -991 -2 -2 -451 442 -997 987 -797 796 -1002 995
-1042 1014 -62 29 -189 37 -248 14z"/>
</g>
</svg>
